<?xml version="1.0" encoding="UTF-8" standalone="no"?>
<!-- Created with Inkscape (http://www.inkscape.org/) -->

<svg
   xmlns:dc="http://purl.org/dc/elements/1.1/"
   xmlns:cc="http://creativecommons.org/ns#"
   xmlns:rdf="http://www.w3.org/1999/02/22-rdf-syntax-ns#"
   xmlns:svg="http://www.w3.org/2000/svg"
   xmlns="http://www.w3.org/2000/svg"
   xmlns:sodipodi="http://sodipodi.sourceforge.net/DTD/sodipodi-0.dtd"
   xmlns:inkscape="http://www.inkscape.org/namespaces/inkscape"
   width="500mm"
   height="500mm"
   viewBox="0 0 500 500"
   version="1.1"
   id="svg4513"
   inkscape:version="0.92.1 r15371"
   sodipodi:docname="thebookisalwaysbetter.svg">
  <defs
     id="defs4507" />
  <sodipodi:namedview
     id="base"
     pagecolor="#ffffff"
     bordercolor="#666666"
     borderopacity="1.0"
     inkscape:pageopacity="0.0"
     inkscape:pageshadow="2"
     inkscape:zoom="0.175"
     inkscape:cx="493.15468"
     inkscape:cy="486.06767"
     inkscape:document-units="mm"
     inkscape:current-layer="layer2"
     showgrid="false"
     inkscape:window-width="1366"
     inkscape:window-height="715"
     inkscape:window-x="-8"
     inkscape:window-y="-8"
     inkscape:window-maximized="1" />
  <metadata
     id="metadata4510">
    <rdf:RDF>
      <cc:Work
         rdf:about="">
        <dc:format>image/svg+xml</dc:format>
        <dc:type
           rdf:resource="http://purl.org/dc/dcmitype/StillImage" />
        <dc:title></dc:title>
      </cc:Work>
    </rdf:RDF>
  </metadata>
  <g
     inkscape:groupmode="layer"
     id="layer2"
     inkscape:label="words"
     style="display:inline"
     transform="translate(0,203)">
    <path
       style="font-style:normal;font-variant:normal;font-weight:normal;font-stretch:normal;font-size:38.96439743px;line-height:0.94999999;font-family:Amatic;-inkscape-font-specification:Amatic;text-align:center;letter-spacing:1.32291663px;word-spacing:0px;text-anchor:middle;fill:#000000;fill-opacity:1;stroke:#000000;stroke-width:7.5357089;stroke-miterlimit:4;stroke-dasharray:none;stroke-opacity:1"
       d="m 455.65481,-118.77254 c -1.94891,0 -6.10464,5.65693 -12.46724,16.97281 -0.51589,0.83673 -2.75259,4.662725 -6.70773,11.476155 -3.89782,6.77359 -7.02119,11.89412 -9.37136,15.36061 h -0.17134 c 0,-0.31877 0.11335,-3.74613 0.34269,-10.28065 0.22934,-6.57436 0.34463,-11.89422 0.34463,-15.958365 0,-3.58602 -0.0568,-6.27574 -0.17134,-8.06875 -0.0573,-1.79301 -0.28802,-3.16767 -0.68927,-4.12394 -0.34391,-0.99611 -0.74474,-1.57354 -1.20331,-1.73291 -0.40124,-0.15939 -1.11779,-0.2395 -2.14959,-0.2395 -0.97442,0 -1.71936,0.26086 -2.23526,0.77884 -0.51589,0.51798 -0.773,1.11397 -0.773,1.79133 0,0.67735 0.2004,1.63482 0.60166,2.87001 0.45855,1.23518 0.68732,2.19071 0.68732,2.86807 l 0.34463,0.47899 c 0,4.86104 0.11336,12.192565 0.34269,21.994345 0.22934,9.80177 0.34464,17.13332 0.34464,21.99436 0,3.78524 -0.4008,9.46269 -1.2033,17.033162 -0.74516,7.530639 -1.11764,13.187574 -1.11764,16.972806 0,3.745387 1.06071,5.619311 3.18156,5.619311 2.46477,0 3.69558,-2.570526 3.69558,-7.710482 0,-2.988332 -0.14185,-7.471871 -0.42836,-13.448574 -0.28651,-6.016553 -0.43031,-10.537213 -0.43031,-13.565393 0,-4.26337 0.17208,-7.41133 0.51598,-9.4434 0.11464,-0.8766 1.23201,-2.56976 3.35289,-5.07996 2.12088,-2.51021 3.35362,-4.24442 3.69753,-5.20069 l 0.51598,-0.23949 c 3.84053,5.10012 8.02458,13.20838 12.55291,24.32503 4.87223,12.112761 8.45508,22.892194 10.74795,32.335368 0.0573,0 0.4581,0.07816 1.2033,0.237544 0.74518,0.159257 1.14603,0.239488 1.2033,0.239488 2.1781,0 3.35412,-0.776763 3.52619,-2.330669 -2.75142,-5.458718 -6.76538,-14.801942 -12.03887,-28.030341 -5.21619,-13.22842 -9.82942,-23.34837 -13.84189,-30.36101 l 0.68733,-0.36022 -0.85867,-1.0748 c 0.11465,-0.87659 0.62884,-2.19164 1.54599,-3.94481 0.91712,-1.793 2.1215,-3.90531 3.61186,-6.33584 1.54766,-2.43052 2.92413,-4.54088 4.12783,-6.33388 1.20376,-1.832855 2.63688,-3.965675 4.29918,-6.396205 1.66225,-2.47037 2.60758,-3.86554 2.83692,-4.1843 0.34393,-0.55782 0.88845,-1.27496 1.63361,-2.15154 0.80251,-0.87657 1.43206,-1.69239 1.89063,-2.44944 0.51577,-0.79689 0.85989,-1.63322 1.03196,-2.5098 0,-0.55783 -0.31381,-0.99747 -0.94435,-1.31624 -0.57318,-0.31875 -1.26144,-0.47703 -2.06391,-0.47703 z m -150.47327,1.55378 c -2.06355,0 -3.92582,0.27942 -5.58815,0.83724 -1.60498,0.51799 -2.95308,1.19408 -4.04217,2.03082 -1.03176,0.79689 -1.92039,1.83253 -2.66557,3.10756 -0.74515,1.27503 -1.31803,2.5305 -1.71928,3.76569 -0.34388,1.19532 -0.62933,2.61103 -0.85867,4.24466 -0.22933,1.59378 -0.37304,2.96844 -0.43031,4.123935 -0.0572,1.15549 -0.11407,2.48913 -0.17134,4.00322 -0.0572,1.5141 -0.11602,2.62985 -0.17329,3.34705 -0.97444,9.72209 -1.46032,16.61592 -1.46032,20.68007 0,1.83286 0.0568,3.88364 0.17134,6.15476 0.17197,2.23132 0.45937,5.02165 0.86061,8.3686 0.45855,3.34695 1.03143,6.59359 1.71929,9.74131 0.68784,3.107875 1.63316,6.294911 2.83692,9.562168 1.26104,3.227411 2.69419,6.038283 4.29918,8.428966 1.6623,2.350837 3.725,4.282413 6.1898,5.796502 2.46479,1.514089 5.15903,2.270306 8.08238,2.270306 2.80874,0 5.44624,-0.916431 7.91104,-2.749292 2.5221,-1.872698 4.41275,-3.964508 5.67383,-6.275478 1.26105,-2.350837 1.89257,-4.481715 1.89257,-6.39426 0,-2.470366 0.45753,-5.079991 1.37465,-7.829253 l -0.34269,-0.478987 c 0,-1.753148 0.25713,-4.381352 0.773,-7.887672 0.57319,-3.50633 0.86061,-6.13645 0.86061,-7.88962 0,-10.79788 -1.4048,-23.16986 -4.2135,-37.11548 -1.03177,-5.379015 -2.09244,-8.964665 -3.18156,-10.757685 -0.57318,-0.95627 -1.71894,-2.19122 -3.43856,-3.70531 -1.61533,-1.47131 -2.61097,-2.41458 -3.03552,-2.87002 -2.79829,-1.67046 -6.56994,-2.5098 -11.32429,-2.5098 z m 11.32429,2.5098 c 0.0357,0.0213 0.0757,0.0388 0.11099,0.0603 l -0.17134,-0.12072 c 0.0114,0.0124 0.048,0.0472 0.0603,0.0604 z m 54.49718,-2.5098 c -2.06356,0 -3.92583,0.27942 -5.58816,0.83724 -1.60495,0.51799 -2.95305,1.19408 -4.04216,2.03082 -1.03177,0.79689 -1.92039,1.83253 -2.66557,3.10756 -0.74516,1.27503 -1.31803,2.5305 -1.71929,3.76569 -0.34387,1.19532 -0.62933,2.61103 -0.85866,4.24466 -0.22924,1.59378 -0.37304,2.96844 -0.4303,4.123935 -0.0572,1.15549 -0.11408,2.48913 -0.17135,4.00322 -0.0573,1.5141 -0.11602,2.62985 -0.1733,3.34705 -0.97444,9.72209 -1.46031,16.61592 -1.46031,20.68007 0,1.83286 0.0568,3.88364 0.17134,6.15476 0.17194,2.23132 0.45742,5.02165 0.85867,8.3686 0.4586,3.34695 1.03341,6.59359 1.72122,9.74131 0.68786,3.107875 1.63316,6.294911 2.83692,9.562168 1.26105,3.227411 2.6942,6.038283 4.29919,8.428966 1.6623,2.350837 3.72499,4.282413 6.1898,5.796502 2.46478,1.514089 5.15903,2.270306 8.08238,2.270306 2.80874,0 5.44623,-0.916431 7.91104,-2.749292 2.52207,-1.872698 4.41273,-3.964508 5.67383,-6.275478 1.26104,-2.350837 1.89257,-4.481715 1.89257,-6.39426 0,-2.470366 0.45753,-5.079991 1.37465,-7.829253 l -0.34269,-0.478987 c 0,-1.753148 0.2571,-4.381352 0.77299,-7.887672 0.5732,-3.50633 0.86062,-6.13645 0.86062,-7.88962 0,-10.79788 -1.4048,-23.16986 -4.21351,-37.11548 -1.03176,-5.379015 -2.09243,-8.964665 -3.18155,-10.757685 -0.57318,-0.95627 -1.71893,-2.19122 -3.43857,-3.70531 -1.61532,-1.47131 -2.61097,-2.41458 -3.03551,-2.87002 -2.79829,-1.67046 -6.56995,-2.5098 -11.32429,-2.5098 z m 11.32429,2.5098 c 0.0357,0.0213 0.0757,0.0388 0.11098,0.0603 l -0.17134,-0.12072 c 0.0114,0.0124 0.0481,0.0472 0.0603,0.0604 z m -287.982787,-1.13515 -2.83691,0.95602 c 0,17.292555 1.06068,35.900835 3.18155,55.823145 0.17194,1.51409 0.28536,4.98055 0.34269,10.39942 0.11463,5.418862 0.28669,10.477868 0.51597,15.179532 0.22929,4.661827 0.60174,7.511787 1.11764,8.547738 0.22928,0.517985 0.54504,0.856995 0.94628,1.016381 0.40124,0.159376 1.00247,0.237544 1.80495,0.237544 1.203737,0 1.806897,-0.61649 1.806897,-1.851683 0,-4.741501 -0.51616,-11.793632 -1.547927,-21.157112 -0.97446,-9.36348 -1.46227,-16.41754 -1.46227,-21.15906 2.464787,-0.99611 6.620517,-1.49342 12.467227,-1.49341 0.74518,-1e-5 1.86256,0.0987 3.3529,0.2979 1.49034,0.19917 2.60967,0.29985 3.35484,0.29985 0.11464,0 0.2867,-0.0205 0.51597,-0.0603 0.28661,-0.0398 0.48702,-0.0584 0.60166,-0.0584 1.14642,15.45969 1.71928,29.463314 1.71928,42.014369 0,0.318763 -0.0283,0.79749 -0.0856,1.435005 -0.0573,0.597658 -0.0856,1.055898 -0.0856,1.374641 -1e-5,1.793035 0.82997,2.688939 2.49228,2.688939 0.80249,0 1.51906,-0.396661 2.14958,-1.193572 0.68786,-0.757035 1.03197,-1.414568 1.03197,-1.972399 0,-0.438292 -0.25711,-1.017658 -0.773,-1.734865 0,-2.908659 -0.43111,-13.266998 -1.29092,-31.077538 -0.85981,-17.85038 -1.28898,-34.04836 -1.28898,-48.591645 0,-1.4344 -0.0586,-2.64884 -0.17329,-3.64495 -0.11463,-0.99612 -0.31504,-2.01124 -0.60164,-3.0472 -0.28661,-1.07581 -0.80083,-1.87306 -1.546,-2.39104 -0.68785,-0.55782 -1.57647,-0.83724 -2.66557,-0.83724 -0.22929,0.79689 -0.34464,1.35379 -0.34464,1.67255 0,4.62197 0.25711,11.55489 0.773,20.798835 0.57321,9.24395 0.86062,16.15831 0.86062,20.74043 l -0.17135,0.23949 c -2.29283,0 -5.73198,0.15829 -10.31764,0.47704 -4.58567,0.31877 -8.02481,0.47899 -10.317647,0.47899 -0.45857,-1.2352 -0.68926,-2.66945 -0.68926,-4.30308 0,-0.51798 0.0283,-1.31523 0.0856,-2.39102 0.0573,-1.07581 0.0876,-1.89357 0.0876,-2.4514 0,-2.78912 -0.25905,-6.93168 -0.77494,-12.43024 -0.45857,-5.49855 -0.68732,-9.643055 -0.68732,-12.432175 0,-3.0282 0.2571,-6.05695 0.773,-9.08513 z m 70.722297,0 c -1.14642,0 -3.09572,0.17879 -5.84713,0.53739 -2.69407,0.3586 -4.84378,0.5374 -6.44877,0.5374 -0.22928,0.15937 -0.54308,0.45933 -0.94433,0.89761 -0.40125,0.43828 -0.83235,0.93559 -1.29092,1.49341 -0.45857,0.51798 -0.77238,0.85701 -0.94435,1.01638 0.0573,1.35471 0.45814,3.48755 1.20331,6.39621 0.74517,2.86881 1.11763,5.038765 1.11763,6.513025 0,2.66959 -0.1437,6.71346 -0.4303,12.13233 -0.28662,5.41886 -0.43032,9.48326 -0.43032,12.1927 0,2.86882 0.17207,7.23315 0.51598,13.0903 0.34394,5.85715 0.51598,10.21955 0.51598,13.08836 0,1.39457 -0.14369,3.486349 -0.4303,6.275478 -0.28662,2.749262 -0.42837,4.820545 -0.42837,6.215115 0,1.952381 0.22876,3.746183 0.68733,5.379822 v 0.239488 c 0,0.517975 -0.28741,1.274193 -0.86062,2.270306 -0.51588,0.996124 -0.773,1.754266 -0.773,2.272261 0,0.637515 0.25712,1.15535 0.773,1.553786 0.57321,0.398445 1.46184,0.675916 2.66557,0.835302 1.20374,0.159376 2.23607,0.239488 3.09588,0.239488 0.85982,0.03978 2.1209,0.06031 3.7832,0.06031 h 1.03196 c 4.4137,0 7.88121,-0.178796 10.40332,-0.537405 2.52211,-0.318762 4.27101,-1.076933 5.24547,-2.27225 0,-1.314886 -2.75288,-1.972409 -8.25567,-1.972409 -1.14642,0 -2.89338,0.08015 -5.24353,0.239498 -2.35015,0.119589 -4.1274,0.179125 -5.33114,0.179125 v -1.135153 c 0,-1.753149 -0.31575,-2.889439 -0.94628,-3.407414 v -24.862418 l 0.60165,-0.71653 c 0,-1.15551 -0.22876,-2.8692 -0.68732,-5.14033 -0.40125,-2.27114 -0.60166,-3.98483 -0.60166,-5.14032 0,-1.55395 2.23477,-2.33067 6.70578,-2.33067 0.57322,0 1.31814,0.0205 2.23527,0.0603 0.97445,0.0398 1.57762,0.0584 1.8069,0.0584 0.91714,0 1.57506,-0.23839 1.9763,-0.71653 0.45857,-0.51797 0.68927,-1.09539 0.68927,-1.73291 0,-0.47814 -0.37246,-0.93636 -1.11762,-1.37465 -0.74518,-0.47814 -1.43339,-0.71847 -2.06393,-0.71847 -1.14642,0 -2.80831,0.1993 -4.9865,0.59775 -2.12087,0.3985 -3.69771,0.61833 -4.72949,0.65812 l -1.03196,-0.41863 0.34464,-0.23949 c 0,-1.71332 0.14175,-4.26335 0.42835,-7.65013 0.28662,-3.3868 0.43032,-5.9368 0.43032,-7.65012 0,-2.31098 -0.22876,-5.77745 -0.68733,-10.39943 -0.45857,-4.621975 -0.68732,-8.088435 -0.68732,-10.399425 0,-0.95626 1.28943,-1.43306 3.86887,-1.43306 0.51589,0 1.28916,0.0391 2.32093,0.11878 1.0891,0.0796 1.89073,0.11877 2.40662,0.11877 1.20373,0 2.151,-0.0186 2.83885,-0.0584 0.74517,-0.0399 1.51845,-0.23916 2.32094,-0.59776 0.80248,-0.39845 1.2033,-0.95729 1.2033,-1.6745 0,-0.55782 -0.14369,-0.99553 -0.4303,-1.31429 -0.28661,-0.35859 -0.74413,-0.59699 -1.37465,-0.71653 -0.63053,-0.15938 -1.17504,-0.23949 -1.63361,-0.23949 -0.45857,-0.0399 -1.11844,-0.0604 -1.97825,-0.0604 z m -98.110097,0.11877 c -4.585676,0 -10.775748,0.38005 -18.571376,1.1371 -7.795628,0.75705 -11.69424,1.55235 -11.69424,2.38909 0,0.63751 0.400808,1.15533 1.203302,1.55377 0.802494,0.3586 1.634417,0.53935 2.494233,0.53935 1.089096,0 2.750987,-0.11921 4.986501,-0.35827 2.235514,-0.23906 3.897405,-0.36021 4.986501,-0.36021 2.006234,0 3.010204,4.2041 3.010204,12.611315 0,3.3071 -0.02831,5.95775 -0.08563,7.94998 -0.05732,1.99223 -0.08563,3.16758 -0.08563,3.52618 0,4.38291 0.400808,10.93578 1.203302,19.66175 0.859806,8.68613 1.288976,15.18134 1.288976,19.48455 0,2.390683 -0.228761,5.818065 -0.68732,10.280649 -0.4586,4.462605 -0.715703,7.729743 -0.773006,9.801663 0,0.996114 0.313818,2.070845 0.944345,3.226335 0.630526,1.115653 1.547505,1.674502 2.751246,1.674502 2.006224,0 3.010204,-1.59448 3.010204,-4.782065 0,-3.028178 -0.143705,-7.750109 -0.430307,-14.165094 -0.286612,-6.41499 -0.430307,-11.19651 -0.430307,-14.34423 0,-1.15549 0.172047,-2.33085 0.515972,-3.52619 -0.802484,-2.03209 -1.403711,-4.46095 -1.804948,-7.28991 -0.401277,-2.86883 -0.630028,-5.00165 -0.687331,-6.3962 v -7.11273 c 0,-1.63361 0.02841,-4.10353 0.08563,-7.41064 0.114645,-3.3071 0.171349,-5.777 0.171349,-7.41063 0,-5.458715 -0.42917,-10.758055 -1.288977,-15.898015 0.45856,-0.83672 1.691301,-1.25586 3.697525,-1.25586 0.687849,0 1.776885,0.0596 3.267222,0.17912 1.49033,0.11955 2.57937,0.18109 3.26722,0.18109 2.23551,-1e-5 3.35289,-0.59794 3.35289,-1.79327 0,-0.55784 -0.40081,-1.03657 -1.2033,-1.43502 -0.80249,-0.43829 -1.63442,-0.65811 -2.49422,-0.65811 z m 168.018507,0.59776 c -3.03799,0 -4.55619,2.93006 -4.55619,8.78722 0,5.69778 0.2004,14.202725 0.60165,25.518595 0.40125,11.31586 0.60165,19.82276 0.60165,25.52055 0,3.42663 -0.1437,8.60676 -0.43031,15.539744 -0.28661,6.893104 -0.4303,12.052749 -0.4303,15.479383 0,1.115653 2.29339,1.674502 6.87908,1.674502 0.85979,0 2.03389,-0.199303 3.52423,-0.597758 1.49034,-0.358649 2.63801,-0.557971 3.44052,-0.597758 3.89781,-1.195347 7.04957,-2.409784 9.45702,-3.644958 2.4648,-1.275029 4.44246,-2.789398 5.9328,-4.542566 1.49033,-1.793005 2.57936,-3.625897 3.26722,-5.498595 0.74515,-1.912544 1.40502,-4.402959 1.97824,-7.470994 -0.34393,-0.717257 -0.51597,-1.175478 -0.51597,-1.374641 0,-0.597669 0.0849,-1.475039 0.25701,-2.630529 0.17207,-1.15551 0.25896,-2.03091 0.25896,-2.62857 0,-2.15161 -0.22875,-4.00501 -0.68732,-5.55895 -0.40125,-1.59378 -1.17648,-3.10817 -2.32289,-4.54257 -1.0891,-1.47425 -2.20648,-2.7297 -3.35289,-3.76567 -1.08909,-1.03596 -2.72263,-2.55034 -4.90083,-4.54257 -2.12088,-1.99224 -4.01153,-3.84368 -5.67383,-5.55701 7.56635,-7.09233 11.3496,-13.86697 11.3496,-20.32181 10e-6,-5.657925 -2.12135,-10.279225 -6.3631,-13.865235 -4.18439,-3.58602 -10.28942,-5.37981 -18.31435,-5.37981 z m 71.06694,1.07673 c 1.83427,0 3.55286,0.37811 5.15785,1.13517 1.60498,0.75704 3.00977,1.87279 4.2135,3.34705 1.20376,1.4344 2.26443,3.00838 3.18155,4.7217 0.97445,1.71331 1.77608,3.76603 2.40661,6.156695 0.68786,2.35083 1.29103,4.58039 1.8069,6.69216 0.516,2.07192 0.91679,4.44314 1.20331,7.11272 0.28648,2.66959 0.51525,4.94017 0.68732,6.81289 0.17206,1.87268 0.28737,4.02603 0.34464,6.45655 0.0572,2.39067 0.0856,4.12294 0.0856,5.19875 0.0573,1.03596 0.0856,2.31193 0.0856,3.82603 v 0.23755 c 0,1.75317 -0.0284,3.50787 -0.0856,5.26104 -0.0572,1.75315 -0.20096,4.26214 -0.4303,7.5294 -0.22926,3.267268 -0.63011,6.23643 -1.20331,8.906009 -0.57321,2.669599 -1.28976,5.33881 -2.14959,8.008389 -0.85982,2.629753 -2.06419,4.701035 -3.61186,6.215125 -1.49031,1.514089 -3.20893,2.27225 -5.15784,2.27225 -2.98067,0 -5.70325,-1.434267 -8.16805,-4.303069 -2.40749,-2.868812 -4.30009,-6.335272 -5.67578,-10.399421 -1.31837,-4.064159 -2.43575,-8.506643 -3.35289,-13.327853 -0.91713,-4.86104 -1.5467,-9.00556 -1.89063,-12.43219 -0.2866,-3.46647 -0.43031,-6.25488 -0.43031,-8.36666 v -4.78205 c 0,-24.185665 4.32777,-36.278235 12.98322,-36.278235 z m 65.82146,0 c 1.83427,0 3.55287,0.37811 5.15786,1.13517 1.60497,0.75704 3.00977,1.87279 4.2135,3.34705 1.20375,1.4344 2.26443,3.00838 3.18155,4.7217 0.97445,1.71331 1.77607,3.76603 2.40661,6.156695 0.68786,2.35083 1.29103,4.58039 1.8069,6.69216 0.51597,2.07192 0.91677,4.44314 1.2033,7.11272 0.28648,2.66959 0.51526,4.94017 0.68732,6.81289 0.17207,1.87268 0.28737,4.02603 0.34465,6.45655 0.0572,2.39067 0.0856,4.12294 0.0856,5.19875 0.0573,1.03596 0.0856,2.31193 0.0856,3.82603 v 0.23755 c 0,1.75317 -0.0284,3.50787 -0.0856,5.26104 -0.0572,1.75315 -0.20097,4.26214 -0.43031,7.5294 -0.22926,3.267268 -0.6301,6.23643 -1.2033,8.906009 -0.57324,2.669599 -1.28979,5.33881 -2.14959,8.008389 -0.85983,2.629753 -2.06419,4.701035 -3.61186,6.215125 -1.4903,1.514089 -3.20894,2.27225 -5.15784,2.27225 -2.98068,0 -5.70325,-1.434267 -8.16805,-4.303069 -2.40749,-2.868812 -4.30009,-6.335272 -5.67578,-10.399421 -1.31837,-4.064159 -2.43575,-8.506643 -3.35289,-13.327853 -0.91713,-4.86104 -1.5467,-9.00556 -1.89063,-12.43219 -0.28651,-3.46647 -0.43031,-6.25488 -0.43031,-8.36666 v -4.78205 c 0,-24.185665 4.3278,-36.278235 12.98322,-36.278235 z m -131.47159,3.10756 c 3.89783,0 7.30862,1.27405 10.23197,3.8241 2.92335,2.55006 4.38486,5.22121 4.38486,8.010335 v 4.66134 c -0.45857,0.7172 -1.1468,2.03226 -2.06392,3.94481 -0.91715,1.91254 -1.80577,3.56468 -2.66557,4.95924 -0.8025,1.35473 -1.83288,2.83001 -3.09393,4.4238 -1.26105,1.55394 -2.75285,2.76838 -4.47247,3.64495 -1.71962,0.83674 -3.61027,1.25587 -5.67383,1.25587 l -0.51598,-0.11877 c 0,-3.26726 -0.1153,-8.14941 -0.34463,-14.64408 -0.22934,-6.53451 -0.34269,-11.435245 -0.34269,-14.702505 0,-3.50632 1.51819,-5.2591 4.55619,-5.25909 z m 4.81516,39.146295 c 10.08846,2.90866 15.13281,11.67447 15.13281,26.297441 0,3.028179 -0.22875,5.280202 -0.68733,6.754464 -0.8598,2.43052 -3.69774,4.941461 -8.51269,7.531357 -4.81496,2.55006 -9.02739,3.824082 -12.63857,3.824082 -0.11465,0 -0.31505,-0.02054 -0.60166,-0.06031 -0.22939,-0.03978 -0.40143,-0.05842 -0.51598,-0.05842 0,-16.65504 -0.28739,-30.960534 -0.86061,-42.913914 0.74518,-0.0797 2.09131,-0.31809 4.04022,-0.71653 1.94891,-0.39851 3.49741,-0.61834 4.64381,-0.65813 z m 73.83765,70.833283 c -1.77694,0 -2.97939,0.258918 -3.60991,0.776893 -0.63054,0.478139 -0.94629,1.195287 -0.94629,2.151535 0,0.239059 0.0284,0.617158 0.0856,1.135163 0.0573,0.517955 0.0856,0.91659 0.0856,1.195516 0,3.864906 -0.62955,9.36357 -1.89062,16.495764 -1.20368,7.132193 -1.92026,12.03292 -2.1496,14.7025 -0.34393,4.103995 -1.28925,10.280699 -2.83691,18.528536 -1.49034,8.247827 -2.40926,14.443103 -2.75319,18.586945 -0.28661,3.745396 -0.60043,6.096083 -0.94434,7.052361 l -0.51598,-0.237544 c 0,-4.701674 -0.77523,-10.001016 -2.32288,-15.898006 -1.49034,-5.89699 -3.15224,-11.216859 -4.9865,-15.958369 -1.83427,-4.7415 -3.52453,-10.120944 -5.07218,-16.137504 -1.49034,-6.01654 -2.23527,-11.474151 -2.23527,-16.375058 l 0.85867,-1.614139 c 0,-1.434396 -1.74695,-2.151534 -5.24352,-2.151534 -1.6623,0.557822 -2.49422,1.355072 -2.49422,2.391032 0,0.239079 0.0284,0.617178 0.0856,1.135153 0.0573,0.478069 0.0856,0.835661 0.0856,1.0748 0,0.996114 -0.2004,2.411798 -0.60165,4.24466 -0.34395,1.792995 -0.54438,2.867735 -0.60166,3.226334 -0.40124,2.66957 -0.80204,6.495586 -1.2033,11.476156 -0.34402,4.980609 -0.57277,8.048434 -0.68732,9.203915 -0.11464,0.956277 -0.45877,2.370007 -1.03196,4.242715 -0.51599,1.832852 -0.83174,3.207523 -0.94629,4.123934 -0.22928,1.633618 -0.63009,4.064447 -1.2033,7.291868 -0.57319,3.227412 -1.03266,6.136967 -1.3766,8.726863 -0.2866,2.55006 -0.4303,4.960373 -0.4303,7.231506 h -0.34269 c -0.74515,-4.303218 -2.2653,-11.854583 -4.55814,-22.652479 -2.23552,-10.797867 -3.75372,-19.124042 -4.5562,-24.981195 -0.0572,-0.438332 -0.17257,-1.794421 -0.34464,-4.065535 -0.11456,-2.271153 -0.28664,-4.521212 -0.51598,-6.75251 -0.22928,-2.231297 -0.57338,-4.563441 -1.03195,-6.993961 -0.40126,-2.43051 -1.03083,-4.382592 -1.89063,-5.856855 -0.85983,-1.514099 -1.89215,-2.270306 -3.09588,-2.270306 -0.68786,0 -1.40443,0.158249 -2.14959,0.477032 -0.68786,0.318742 -1.20401,0.696881 -1.54794,1.135163 0.80251,0.876574 2.09193,5.958021 3.86888,15.241839 1.77694,9.243951 3.58254,19.304312 5.41681,30.181882 1.83426,10.837753 2.95358,17.193253 3.35484,19.065931 0.22926,1.195337 0.65843,2.968643 1.28898,5.31946 0.63053,2.311 1.11835,4.40278 1.46226,6.275478 0.40135,1.872698 0.65846,3.664546 0.77299,5.377868 v 1.913991 c 0.0572,1.115663 0.11408,2.071163 0.17135,2.868064 0.1146,0.757044 0.28664,1.652979 0.51598,2.688939 0.28661,0.996124 0.74608,1.754275 1.3766,2.27226 0.63054,0.557812 1.40381,0.837247 2.32093,0.837247 v -0.002 c 0.63053,0 1.29039,-0.258908 1.97825,-0.776893 0.68783,-0.517976 1.03195,-0.916591 1.03195,-1.195516 0,-4.422728 0.77328,-13.367337 2.32094,-26.834833 1.14643,-10.51897 2.4945,-18.269658 4.04216,-23.250227 0.40131,-1.354723 0.63006,-3.384963 0.68733,-6.094399 0.0573,-2.749282 0.28607,-4.801993 0.68732,-6.156706 0,-0.03998 0.0284,-0.07906 0.0856,-0.118782 0.0573,-0.03998 0.0856,-0.08105 0.0856,-0.120716 l 0.51597,0.239498 c 0.91713,5.100109 2.75302,12.332951 5.50444,21.696452 2.80871,9.363471 4.67101,16.136158 5.58815,20.319856 0.11457,0.398436 0.28665,1.553288 0.51598,3.465823 0.22929,1.912544 0.51474,3.846064 0.85867,5.798445 0.34393,1.952401 0.74667,3.964069 1.20525,6.03599 0.51587,2.071911 1.14544,3.765105 1.89062,5.079962 0.74519,1.275039 1.54876,1.912046 2.40856,1.912046 1.31837,0 2.1767,-0.258908 2.57796,-0.776893 0.40124,-0.517976 0.60359,-1.253666 0.60359,-2.209954 v -1.793264 c 0,-5.89702 1.4615,-14.722418 4.38485,-26.476572 1.71962,-7.251713 3.32288,-17.492795 4.81322,-30.721221 1.54765,-13.268254 2.7237,-22.272477 3.52618,-27.013968 0.0572,-0.159406 0.17257,-0.558021 0.34464,-1.195516 0.22934,-0.637515 0.34268,-1.134824 0.34268,-1.493423 0,-0.358719 -0.0568,-0.617626 -0.17134,-0.776883 1.26105,-0.717198 1.89257,-1.495876 1.89257,-2.332623 0,-0.517975 -0.37247,-0.955689 -1.11763,-1.314288 -0.74521,-0.398436 -1.49205,-0.597758 -2.2372,-0.597758 z M 75.706943,0.113033 c -3.78317,0 -7.07862,0.955529 -9.88734,2.868074 -2.751396,1.872698 -4.729059,4.065135 -5.932789,6.575329 -1.203741,2.510223 -1.806902,5.039706 -1.806902,7.589765 0,3.94462 0.860274,7.908389 2.579897,11.892845 1.719622,3.944619 3.812634,7.610382 6.277424,10.997179 2.4648,3.346961 4.92832,6.714737 7.39311,10.101514 2.52212,3.386798 4.64348,7.132672 6.3631,11.236678 1.71962,4.103995 2.5799,8.246561 2.5799,12.430229 0,1.713322 -0.2874,3.646852 -0.86062,5.798446 -0.5732,2.151624 -1.43153,4.362604 -2.57795,6.633747 -1.14641,2.231298 -2.81025,4.103258 -4.98845,5.617357 -2.12087,1.514099 -4.52769,2.27226 -7.22176,2.27226 -1.0891,0 -2.69429,-0.29995 -4.815164,-0.897609 -2.063547,-0.637525 -3.697096,-0.956018 -4.900836,-0.956018 -1.261053,0 -1.890623,0.499243 -1.890623,1.495367 0.745171,0.916411 1.834197,1.613063 3.267218,2.091172 1.43302,0.478218 2.722465,0.757622 3.868873,0.837256 1.146422,0.07965 2.636262,0.118772 4.470532,0.118772 3.61121,0 6.8783,-0.756217 9.80166,-2.270317 2.98069,-1.474232 5.30245,-3.366719 6.96475,-5.677719 1.71963,-2.310981 3.00906,-4.723227 3.86888,-7.23345 0.91713,-2.510193 1.37659,-4.920496 1.37659,-7.231506 0,-2.948495 -0.88862,-6.852649 -2.66557,-11.713709 -2.69407,-6.255739 -4.04217,-9.403706 -4.04217,-9.443393 0,-0.03968 0.0284,-0.119929 0.0856,-0.239498 0.0573,-0.11956 0.0876,-0.199552 0.0876,-0.239488 -0.2866,-0.398436 -1.29058,-1.651972 -3.01021,-3.76373 -1.6623,-2.151624 -2.72298,-3.507712 -3.18155,-4.065534 -0.40125,-0.557812 -1.31822,-1.792746 -2.75124,-3.705311 -1.3757,-1.912544 -2.32103,-3.287206 -2.83692,-4.123943 -0.45857,-0.836718 -1.20349,-2.110771 -2.23525,-3.824093 -1.03179,-1.713322 -1.74836,-3.128996 -2.1496,-4.244659 -0.40124,-1.115664 -0.88906,-2.449312 -1.46226,-4.003228 -0.51588,-1.553935 -0.88835,-3.047777 -1.11764,-4.482203 -0.17196,-1.474263 -0.25896,-2.949562 -0.25896,-4.423795 0,-1.872698 0.43112,-3.744668 1.29092,-5.617366 0.85981,-1.872698 2.29296,-3.54731 4.29918,-5.021553 2.06355,-1.474252 4.49873,-2.209943 7.30744,-2.209943 1.20375,0.836738 3.12469,1.253925 5.76145,1.253925 l 1.03196,-1.374651 c -0.40125,-0.717198 -1.54892,-1.393294 -3.44051,-2.030818 -1.89159,-0.677332 -3.43813,-1.016381 -4.64187,-1.016381 z m 401.595637,0 c -3.78317,0 -7.08059,0.955529 -9.88928,2.868074 -2.75142,1.872698 -4.72904,4.065135 -5.93279,6.575329 -1.2037,2.510223 -1.80496,5.039706 -1.80496,7.589765 0,3.94462 0.86031,7.908389 2.5799,11.892845 1.71962,3.944619 3.81067,7.610382 6.27549,10.997179 2.46477,3.346961 4.93024,6.714737 7.39505,10.101514 2.52212,3.386798 4.64348,7.132672 6.3631,11.236678 1.71959,4.103995 2.5799,8.246561 2.5799,12.430229 0,1.713322 -0.28743,3.646852 -0.86061,5.798446 -0.57323,2.151624 -1.4335,4.362604 -2.5799,6.633747 -1.14641,2.231298 -2.80831,4.103258 -4.98651,5.617357 -2.12087,1.514099 -4.52771,2.27226 -7.22177,2.27226 -1.0891,0 -2.69428,-0.29995 -4.81516,-0.897609 -2.06355,-0.637525 -3.69713,-0.956018 -4.90083,-0.956018 -1.26107,0 -1.89257,0.499243 -1.89257,1.495367 h 0.002 c 0.74518,0.916411 1.83424,1.613063 3.26723,2.091172 1.43301,0.478218 2.72241,0.757622 3.86887,0.837256 1.14641,0.07965 2.63625,0.118772 4.47052,0.118772 3.61119,0 6.87831,-0.756217 9.80166,-2.270317 2.98068,-1.474232 5.30243,-3.366719 6.96476,-5.677719 1.7196,-2.310981 3.00902,-4.723227 3.86887,-7.23345 0.91712,-2.510193 1.3766,-4.920496 1.3766,-7.231506 0,-2.948495 -0.8886,-6.852649 -2.66558,-11.713709 -2.69406,-6.255739 -4.04216,-9.403706 -4.04216,-9.443393 0,-0.03968 0.0284,-0.119929 0.0856,-0.239498 0.0572,-0.11956 0.0856,-0.199552 0.0856,-0.239488 -0.28662,-0.398436 -1.28866,-1.651972 -3.00826,-3.76373 -1.66233,-2.151624 -2.72301,-3.507712 -3.18155,-4.065534 -0.40125,-0.557812 -1.31823,-1.792746 -2.75124,-3.705311 -1.3757,-1.912544 -2.32102,-3.287206 -2.83691,-4.123943 -0.45858,-0.836718 -1.20351,-2.110771 -2.23527,-3.824093 -1.03179,-1.713322 -1.74834,-3.128996 -2.14959,-4.244659 -0.40123,-1.115664 -0.88907,-2.449312 -1.46227,-4.003228 -0.51587,-1.553935 -0.88829,-3.047777 -1.11763,-4.482203 -0.17206,-1.474263 -0.25896,-2.949562 -0.25896,-4.423795 0,-1.872698 0.43112,-3.744668 1.29092,-5.617366 0.8598,-1.872698 2.29292,-3.54731 4.29918,-5.021553 2.06355,-1.474252 4.49871,-2.209943 7.30744,-2.209943 1.20371,0.836738 3.12468,1.253925 5.76145,1.253925 l 1.03196,-1.374651 C 484.98362,2.443034 483.83598,1.766938 481.94436,1.129414 480.0528,0.452082 478.50625,0.113033 477.30249,0.113033 Z M 211.60817,0.231805 c -1.54767,0 -2.32094,0.419141 -2.32094,1.255879 0,5.657931 0.28741,14.183378 0.86061,25.578953 0.63053,11.395555 0.94435,19.922966 0.94435,25.580907 0,3.904752 0.2874,9.72191 0.86061,17.451792 0.5732,7.689985 0.85867,13.447557 0.85867,17.272657 0,0.91642 -0.17011,2.011647 -0.51404,3.286697 -0.34392,1.27494 -0.51598,2.033121 -0.51598,2.27225 h -0.002 c 0,0.677362 0.40276,1.275269 1.20524,1.793274 0.85982,0.517956 1.74845,0.776894 2.66557,0.776894 0.68785,0 1.51783,-0.258938 2.49228,-0.776894 0.97445,-0.478138 1.77803,-0.71653 2.40856,-0.71653 0.57321,0 1.49018,0.01874 2.75124,0.05842 1.26106,0.03968 2.17804,0.06041 2.75124,0.06041 1.77695,0 2.95102,-0.07995 3.52425,-0.239488 0.17195,0.03968 0.43103,0.09929 0.77493,0.179125 0.40125,0.07985 0.74536,0.139448 1.03197,0.179135 0.34387,0.07965 0.62933,0.120716 0.85866,0.120716 0.74516,0 1.31803,-0.219839 1.71928,-0.658111 0.45858,-0.438282 0.68928,-0.917029 0.68928,-1.435004 0,-0.199352 -0.0587,-0.378148 -0.1733,-0.537405 -0.0573,-0.199342 -0.19902,-0.378139 -0.42836,-0.537395 -0.17186,-0.159257 -0.34392,-0.278388 -0.51597,-0.35826 -0.11465,-0.11965 -0.34534,-0.259377 -0.68928,-0.418633 -0.28671,-0.199442 -0.48711,-0.320517 -0.60165,-0.360204 h -6.53444 c -0.63052,0.517975 -1.91997,0.776883 -3.86887,0.776883 -1.60499,0 -2.69402,-0.197369 -3.26723,-0.595804 -0.51588,-0.398466 -0.77299,-1.177143 -0.77299,-2.332623 0,-1.155501 0.22876,-1.971303 0.68733,-2.449442 -0.11465,-2.629733 -0.48712,-7.072259 -1.11764,-13.327848 -0.57321,-6.25562 -0.86062,-11.076235 -0.86062,-14.463002 0,-1.03599 0.11536,-2.63047 0.34464,-4.782065 l -0.51597,-0.478986 c 0.22927,-1.992237 0.34463,-3.426494 0.34463,-4.303068 0,-1.514099 -0.17206,-3.644977 -0.51598,-6.39425 -0.28661,-2.789119 -0.45866,-4.782244 -0.51599,-5.977581 C 215.19171,28.322115 214.961,17.226132 214.961,2.44376 c 0,-0.677332 -0.31382,-1.215674 -0.94434,-1.61414 -0.63053,-0.398435 -1.4341,-0.597758 -2.40855,-0.597758 z M 28.456848,1.366968 c -2.808718,0 -6.792386,0.380062 -11.951263,1.137097 -5.158868,0.717198 -7.737738,1.633639 -7.737738,2.749292 0,1.1555 0.62956,1.732911 1.890623,1.732911 0.687849,0 1.691828,-0.139697 3.010204,-0.418623 1.318375,-0.318732 2.320411,-0.478986 3.00826,-0.478986 0.343924,0.796881 0.515981,3.168115 0.515981,7.112734 0,1.952371 -0.02831,4.662635 -0.08564,8.129115 -0.05732,3.4665 -0.08563,5.537753 -0.08563,6.215115 0.171967,4.223515 0.544423,11.176952 1.117637,20.859205 0.573204,9.682233 0.917308,17.13296 1.031953,22.352619 0.05732,1.474242 0.257732,3.905071 0.601656,7.291869 0.401247,3.386767 0.601646,6.016888 0.601646,7.889616 -0.114635,2.828956 -1.347376,4.242716 -3.697525,4.242716 -0.286602,0 -0.859467,-0.02064 -1.719283,-0.06031 -0.859806,-0.03998 -1.576386,-0.05842 -2.14959,-0.05842 -2.694084,0 -4.040213,0.4582 -4.040213,1.374641 0.401247,0.637525 1.202863,1.134824 2.406604,1.493423 1.261053,0.318912 2.350089,0.497708 3.267218,0.537395 0.974461,0.03968 2.207191,0.06031 3.697534,0.06031 h 0.430307 c 0.687849,0.637525 2.34974,0.956028 4.986501,0.956028 1.375698,-0.956287 2.723791,-1.435014 4.042167,-1.435014 0.630527,0 1.547506,0.100658 2.751236,0.299851 1.203741,0.199193 2.149072,0.297907 2.836921,0.297907 l 3.00825,-1.493413 c 0,-1.075827 -0.372456,-1.85253 -1.117627,-2.330679 -0.687849,-0.478139 -1.83359,-0.718474 -3.438567,-0.718474 -0.687849,0 -1.748523,0.06151 -3.181543,0.181079 -1.433021,0.119569 -2.493704,0.179135 -3.181553,0.179135 0,-0.717228 0.02841,-1.773366 0.08563,-3.167916 0.05732,-1.394589 0.08763,-2.450727 0.08763,-3.167925 0,-7.849371 -0.746876,-19.563829 -2.237209,-35.143072 -1.433016,-15.579222 -2.147642,-27.254591 -2.147642,-35.024299 0,-1.514079 0.02831,-2.648405 0.08563,-3.405469 0.05732,-0.796901 0.199074,-1.573635 0.428353,-2.33067 0.286602,-0.757034 0.717717,-1.27486 1.290931,-1.553776 0.630526,-0.278926 1.432153,-0.418633 2.406604,-0.418633 0.343924,0 1.00379,0.01874 1.978241,0.05842 0.974461,0.03998 1.719383,0.06031 2.235265,0.06031 0.687849,0 1.20401,-0.199292 1.547944,-0.597758 0.401237,-0.438302 0.601646,-0.896502 0.601646,-1.374641 0,-0.557792 -0.344104,-1.036549 -1.031953,-1.435014 C 29.975908,1.566228 29.259338,1.366916 28.456854,1.366916 Z M 411.30782,1.727172 c -0.91712,0 -1.74707,0.178806 -2.49228,0.537405 -0.68783,0.318752 -1.03195,0.795565 -1.03195,1.43306 0,1.394579 0.85835,4.045227 2.57795,7.94998 1.03182,2.470376 1.97906,5.100498 2.83886,7.889617 0.8598,2.749272 1.83348,6.135631 2.92258,10.159923 1.14641,3.984485 1.94999,6.772887 2.40856,8.366659 0.0573,0.199223 0.37112,1.115653 0.94434,2.749302 0.57327,1.633609 1.00439,3.028797 1.29093,4.184297 0.3439,1.1555 0.51597,2.071931 0.51597,2.749292 0,1.235183 0.3441,3.107174 1.03196,5.617367 0.74516,2.510223 1.11763,4.423196 1.11763,5.738082 0,1.115664 0.20041,2.769759 0.60165,4.96119 0.40125,2.19146 0.60166,3.845536 0.60166,4.961189 0,2.629713 -0.1438,6.572986 -0.43032,11.832482 -0.28653,5.259505 -0.4303,9.184176 -0.4303,11.774072 0,0.677362 0.20046,1.334885 0.60165,1.972409 0.40125,0.677332 1.03275,1.016382 1.89258,1.016382 1.26104,0 2.20637,-0.378149 2.83691,-1.135154 0.68786,-0.717228 1.03196,-1.534974 1.03196,-2.451395 0,-0.07975 -0.0284,-0.21943 -0.0856,-0.418623 -0.0573,-0.199273 -0.0856,-0.337056 -0.0856,-0.416679 l -0.51598,-0.360214 c 0.22934,-5.458718 0.34269,-13.706705 0.34269,-24.743651 0,-1.633639 -0.22875,-4.08304 -0.68732,-7.350278 -0.40125,-3.267277 -0.60166,-5.718603 -0.60166,-7.352221 v -0.956019 l 1.11764,-1.851683 c 0,-0.478148 -0.0849,-1.156188 -0.25701,-2.032772 -0.17207,-0.876574 -0.25897,-1.534097 -0.25897,-1.972399 0,-2.828956 0.2571,-5.976923 0.77299,-9.443403 0.51588,-3.466501 1.03205,-6.275418 1.54795,-8.427012 0.51589,-2.191461 1.31946,-5.458609 2.40855,-9.801664 1.14641,-4.343054 1.89133,-7.172498 2.23526,-8.487385 0.0573,-0.438302 0.31443,-1.215025 0.773,-2.330669 0.45857,-1.1555 0.68927,-2.051414 0.68927,-2.688929 0,-0.438332 -0.14377,-0.756835 -0.43032,-0.956028 -0.28665,-0.199193 -0.57408,-0.299851 -0.86061,-0.299851 -0.22928,-0.03968 -0.68681,-0.05842 -1.37464,-0.05842 -1.26108,0 -2.2934,0.875388 -3.09588,2.628576 -0.74518,1.753159 -1.34641,4.085293 -1.80496,6.993952 -0.4586,2.868792 -0.88967,5.856516 -1.29092,8.964417 -0.3439,3.107851 -0.88845,6.354483 -1.63361,9.7413 -0.68786,3.346941 -1.54616,6.057194 -2.57795,8.129115 -1.54765,-1.474263 -3.7277,-6.993443 -6.53639,-16.556127 C 415.17658,12.423951 413.6584,5.990283 413.3719,2.683189 Z m -239.985,0.597758 c -0.74517,0 -1.57514,0.676105 -2.49228,2.030818 -0.91713,1.354723 -1.7774,3.029315 -2.5799,5.021553 -0.80249,1.952401 -1.46236,3.645565 -1.97825,5.079971 -0.51587,1.434396 -0.91669,2.609735 -1.2033,3.526176 -1.60498,5.100099 -3.75469,13.009086 -6.44877,23.727279 -2.63675,10.718234 -4.84317,18.805977 -6.62011,24.264665 -0.28661,0.956277 -0.94648,3.526814 -1.97825,7.710482 -0.97445,4.183708 -2.00483,7.929603 -3.09393,11.236677 -1.08909,3.307124 -2.14978,5.479016 -3.18155,6.514966 0.40125,0.478069 0.85876,0.835671 1.37465,1.0748 0.5732,0.199442 1.11772,0.318573 1.63361,0.35826 0.51589,0.03968 1.31946,0.06031 2.40855,0.06031 0.85981,-0.876574 1.72009,-3.087564 2.57989,-6.633737 0.85982,-3.546164 1.7465,-6.794759 2.66363,-9.743254 0.91713,-2.988362 1.94946,-4.482214 3.09588,-4.482214 2.98068,0 7.56751,0.398615 13.75816,1.195516 6.19064,0.757045 9.28568,1.673475 9.28568,2.749302 v 12.132333 c 0,0.278916 0.085,0.698057 0.25702,1.255869 0.17196,0.517985 0.25896,0.9166 0.25896,1.195516 0,0.478139 -0.17206,0.954922 -0.51598,1.43306 0,0.597659 0.34411,1.096932 1.03196,1.495367 0.68785,0.398436 1.46112,0.597759 2.32093,0.597759 0.80249,0 1.46236,-0.08025 1.97825,-0.239488 0.51588,-0.159287 0.88835,-0.319481 1.11763,-0.478987 0.2866,-0.159386 0.48701,-0.457392 0.60165,-0.895665 0.11465,-0.478138 0.17134,-0.817188 0.17134,-1.016381 v -1.314288 c 0,-3.546153 -0.3441,-8.866012 -1.03195,-15.958369 -0.63053,-7.092337 -0.94629,-12.410251 -0.94629,-15.956425 -1.03177,-1.314856 -1.54599,-3.18879 -1.54599,-5.61931 0,-1.115664 0.1134,-2.907492 0.34269,-5.377869 -0.80249,-1.195317 -1.46042,-4.304185 -1.9763,-9.324631 0,-0.159376 -0.20236,-1.772429 -0.6036,-4.840474 -0.34392,-3.068034 -0.68609,-5.957094 -1.03002,-8.66651 -0.34391,-2.749302 -0.74667,-5.757542 -1.20524,-9.02477 -0.40125,-3.307124 -0.83041,-6.017357 -1.28898,-8.129114 -0.40125,-2.151595 -0.77371,-3.407075 -1.11763,-3.765674 -0.85981,-0.796931 -2.2079,-1.193572 -4.04216,-1.193572 z m 200.56027,0 c -0.74515,0 -1.57708,0.676105 -2.49422,2.030818 -0.91715,1.354723 -1.77548,3.029315 -2.57795,5.021553 -0.8025,1.952401 -1.46235,3.645565 -1.97825,5.079971 -0.51596,1.434396 -0.91679,2.609735 -1.2033,3.526176 -1.60498,5.100099 -3.7547,13.009086 -6.44878,23.727279 -2.63677,10.718234 -4.84319,18.805977 -6.62011,24.264665 -0.28661,0.956277 -0.94645,3.526814 -1.97825,7.710482 -0.97446,4.183708 -2.00681,7.929603 -3.09587,11.236677 -1.08911,3.307124 -2.14976,5.479016 -3.18155,6.514966 0.40125,0.478069 0.8607,0.835671 1.3766,1.0748 0.57318,0.199442 1.11771,0.318573 1.63361,0.35826 0.51589,0.03968 1.31751,0.06031 2.4066,0.06031 0.8598,-0.876574 1.72007,-3.087564 2.5799,-6.633737 0.8598,-3.546164 1.74842,-6.794759 2.66557,-9.743254 0.91715,-2.988362 1.94947,-4.482214 3.09588,-4.482214 2.98067,0 7.56555,0.398615 13.75621,1.195516 6.19063,0.757045 9.28568,1.673475 9.28568,2.749302 v 12.132333 c 0,0.278916 0.0869,0.698057 0.25897,1.255869 0.17206,0.517985 0.25701,0.9166 0.25701,1.195516 0,0.478139 -0.17207,0.954922 -0.51598,1.43306 0,0.597659 0.3441,1.096932 1.03196,1.495367 0.68783,0.398436 1.46111,0.597759 2.32093,0.597759 0.80251,0 1.46238,-0.08025 1.97825,-0.239488 0.51585,-0.159287 0.88829,-0.319481 1.11763,-0.478987 0.28671,-0.159386 0.48711,-0.457392 0.60166,-0.895665 0.11453,-0.478138 0.17328,-0.817188 0.17328,-1.016381 v -1.314288 c 0,-3.546153 -0.34409,-8.866012 -1.03195,-15.958369 -0.63052,-7.092337 -0.94629,-12.410251 -0.94629,-15.956425 -1.03176,-1.314856 -1.54793,-3.18879 -1.54793,-5.61931 0,-1.115664 0.11529,-2.907492 0.34463,-5.377869 -0.80251,-1.195317 -1.46238,-4.304185 -1.97825,-9.324631 0,-0.159376 -0.2004,-1.772429 -0.60165,-4.840474 -0.3439,-3.068034 -0.68803,-5.957094 -1.03196,-8.66651 -0.34393,-2.749302 -0.74474,-5.757542 -1.2033,-9.02477 -0.40123,-3.307124 -0.83236,-6.017357 -1.29093,-8.129114 -0.40125,-2.151595 -0.7737,-3.407075 -1.11763,-3.765674 -0.8598,-0.796931 -2.20595,-1.193572 -4.04022,-1.193572 z m -201.07625,8.964417 c 0,0.358599 0.087,0.855898 0.25896,1.493423 0.22931,0.637445 0.37301,1.077103 0.43031,1.316232 4.58566,19.723085 6.87713,38.109602 6.87713,55.163078 0,0.757044 -0.54452,1.137107 -1.63361,1.137107 l -0.85866,-0.239488 c -0.68786,0.159246 -1.74854,0.239488 -3.18156,0.239488 -6.93581,0 -12.86879,-0.579385 -17.79838,-1.734856 v -0.71654 c 0,-1.354713 0.22877,-2.768453 0.68733,-4.242705 0.45856,-1.514099 1.06174,-3.188701 1.80691,-5.021553 0.80248,-1.872678 1.34699,-3.286408 1.63361,-4.242715 1.1464,-3.546154 2.5209,-9.264657 4.12588,-17.153885 1.6623,-7.929075 3.2675,-13.945555 4.81516,-18.04955 0.28661,-0.956288 0.63071,-1.572788 1.03196,-1.851684 l -0.51597,-0.718484 c 0.11463,-0.757034 0.88791,-2.548883 2.32093,-5.377868 z m 200.56027,0 c 0,0.358599 0.0869,0.855898 0.25897,1.493423 0.22926,0.637445 0.37109,1.077103 0.42835,1.316232 4.58567,19.723085 6.87909,38.109602 6.87909,55.163078 0,0.757044 -0.5445,1.137107 -1.63362,1.137107 l -0.85866,-0.239488 c -0.68784,0.159246 -1.74851,0.239488 -3.18155,0.239488 -6.93581,0 -12.86879,-0.579385 -17.79838,-1.734856 v -0.71654 c 0,-1.354713 0.22875,-2.768453 0.68733,-4.242705 0.45855,-1.514099 1.05975,-3.188701 1.80495,-5.021553 0.80255,-1.872678 1.34711,-3.286408 1.63362,-4.242715 1.14643,-3.546154 2.52285,-9.264657 4.12783,-17.153885 1.6623,-7.929075 3.26751,-13.945555 4.81516,-18.04955 0.2866,-0.956288 0.63071,-1.572788 1.03196,-1.851684 l -0.51598,-0.718484 c 0.11465,-0.757034 0.88792,-2.548883 2.32093,-5.377868 z m -94.88182,13.44662 v 0.239498 z m 27.59809,55.285748 -0.34269,0.179135 c 0,-0.11957 0.11336,-0.179135 0.34269,-0.179135 z M 369.88537,118.58 c -2.35016,0 -3.52423,0.35759 -3.52423,1.07479 0,0.23909 0.0568,0.61912 0.17134,1.1371 0.11455,0.47806 0.17135,0.83566 0.17135,1.07479 v 13.56735 c 0,8.24781 -0.11336,20.64031 -0.34269,37.17584 -0.22934,16.49566 -0.34464,28.8657 -0.34464,37.11354 l -0.60165,0.6581 c 0,0.59769 0.28742,1.07642 0.86062,1.43502 0.57321,0.39843 1.28979,0.59775 2.14959,0.59775 2.12088,0 3.1796,-0.81778 3.1796,-2.4514 0,-0.35859 -0.0565,-0.87641 -0.17134,-1.55376 -0.11455,-0.67736 -0.17135,-1.17466 -0.17135,-1.49342 v -45.90077 l 3.35289,-0.95796 1.37465,0.71847 c 1.2037,3.10788 2.58018,7.57089 4.12784,13.38822 1.54766,5.81731 2.63666,9.68239 3.26722,11.59493 0.5732,1.8727 2.17839,5.65766 4.81516,11.35544 2.69407,5.65794 4.21229,10.07994 4.5562,13.26749 h 0.002 c 0.17197,0.11955 0.45742,0.37846 0.85867,0.77689 0.40118,0.35875 0.71695,0.61764 0.94629,0.77689 0.28663,0.19935 0.65909,0.37814 1.11763,0.5374 0.45858,0.19919 0.94638,0.29985 1.46227,0.29985 1.54765,0 2.32094,-1.33559 2.32094,-4.00517 -2.92339,-5.06025 -6.67828,-13.62674 -11.26394,-25.69967 -4.58565,-12.11275 -6.87713,-20.16142 -6.87713,-24.1459 0,-0.31874 0.31383,-1.07497 0.94434,-2.27031 0.68786,-1.19534 1.40443,-2.47131 2.14959,-3.82604 0.8024,-1.35472 1.2902,-2.21156 1.46226,-2.57017 2.35017,-4.30321 3.52425,-8.38619 3.52425,-12.2511 0,-0.91644 -0.14186,-1.79378 -0.42837,-2.63052 -0.22929,-0.87658 -0.57338,-1.87313 -1.03196,-2.98879 -0.45852,-1.15547 -0.80261,-2.17062 -1.03195,-3.0472 -1.43304,-3.42664 -3.43905,-6.07725 -6.01847,-7.94998 -2.5221,-1.87267 -6.19197,-2.8077 -11.00692,-2.8077 z m -192.60834,0.47703 c -1.14642,0 -3.09573,0.18075 -5.84712,0.53935 -2.69408,0.3586 -4.8438,0.53739 -6.44878,0.53739 -0.22929,0.15939 -0.54504,0.45739 -0.94628,0.89567 -0.40125,0.4383 -0.83041,0.93754 -1.28898,1.49537 -0.45856,0.5181 -0.77432,0.85712 -0.94628,1.01638 0.0573,1.35472 0.45813,3.48559 1.2033,6.39425 0.74517,2.86882 1.11763,5.04074 1.11763,6.51497 0,2.6696 -0.14175,6.71345 -0.42836,12.13233 -0.28661,5.41886 -0.43031,9.48327 -0.43031,12.1927 0,2.86883 0.17206,7.2312 0.51598,13.08836 0.34393,5.85716 0.51598,10.22151 0.51598,13.0903 0,1.39459 -0.14369,3.48637 -0.4303,6.27549 -0.28661,2.74926 -0.43031,4.82054 -0.43031,6.21511 0,1.95238 0.22875,3.74422 0.68732,5.37787 v 0.2395 c 0,0.51796 -0.28545,1.27613 -0.85867,2.27225 -0.51588,0.99612 -0.77494,1.75233 -0.77494,2.27031 0,0.63752 0.25906,1.15535 0.77494,1.55378 0.57322,0.39857 1.46184,0.678 2.66557,0.83725 1.20374,0.1595 2.23412,0.23948 3.09394,0.23948 0.8598,0.0397 2.1209,0.0604 3.7832,0.0604 h 1.03195 c 4.41371,0 7.88315,-0.18075 10.40526,-0.53935 2.52212,-0.31876 4.26908,-1.075 5.24353,-2.27031 0,-1.3149 -2.75094,-1.97241 -8.25373,-1.97241 -1.14641,0 -2.89531,0.0803 -5.24547,0.2395 -2.35015,0.11956 -4.12739,0.17913 -5.33113,0.17913 v -1.13516 c 0,-1.75318 -0.31382,-2.88945 -0.94435,-3.40741 v -24.86247 l 0.60166,-0.71848 c 0,-1.1555 -0.22876,-2.86919 -0.68733,-5.14032 -0.40125,-2.27115 -0.60359,-3.98288 -0.60359,-5.13838 0,-1.55394 2.23671,-2.33067 6.70773,-2.33067 0.57321,0 1.31813,0.0187 2.23526,0.0584 0.97447,0.0397 1.57569,0.0604 1.80496,0.0604 0.91713,0 1.57699,-0.24034 1.97824,-0.71847 0.45857,-0.51799 0.68732,-1.09542 0.68732,-1.73291 0,-0.47815 -0.37246,-0.93635 -1.11763,-1.37466 -0.74517,-0.47811 -1.43339,-0.71653 -2.06391,-0.71653 -1.14642,0 -2.80832,0.19933 -4.98651,0.59776 -2.12087,0.39859 -3.69772,0.61648 -4.72949,0.65617 l -1.03195,-0.41668 0.34463,-0.23949 c 0,-1.71332 0.14369,-4.26335 0.43031,-7.65013 0.28661,-3.38682 0.4303,-5.9368 0.4303,-7.65012 0,-2.31097 -0.2307,-5.77744 -0.68926,-10.39942 -0.45857,-4.62197 -0.68733,-8.08844 -0.68733,-10.39942 0,-0.95628 1.28944,-1.43501 3.86887,-1.43501 0.51588,0 1.29111,0.0389 2.32288,0.11877 1.0891,0.0797 1.89073,0.12072 2.40661,0.12072 1.20374,0 2.14907,-0.0204 2.83692,-0.0603 0.74517,-0.0398 1.52039,-0.23914 2.32287,-0.59776 0.8025,-0.39844 1.20331,-0.95536 1.20331,-1.67256 0,-0.55784 -0.1437,-0.99749 -0.43031,-1.31623 -0.2866,-0.35858 -0.74606,-0.59696 -1.37659,-0.71653 -0.63053,-0.15925 -1.17505,-0.2395 -1.63362,-0.2395 -0.45857,-0.0397 -1.11648,-0.0584 -1.97629,-0.0584 z m 154.12795,0 c -1.1464,0 -3.09375,0.18075 -5.84517,0.53935 -2.69406,0.3586 -4.84378,0.53739 -6.44877,0.53739 -0.22928,0.15939 -0.54503,0.45739 -0.94629,0.89567 -0.40125,0.4383 -0.8304,0.93754 -1.28897,1.49537 -0.45847,0.5181 -0.77422,0.85712 -0.94628,1.01638 0.0573,1.35472 0.45814,3.48559 1.2033,6.39425 0.74515,2.86882 1.11763,5.04074 1.11763,6.51497 0,2.6696 -0.1438,6.71345 -0.43031,12.13233 -0.28653,5.41886 -0.42836,9.48327 -0.42836,12.1927 0,2.86883 0.17205,7.2312 0.51598,13.08836 0.34393,5.85716 0.51598,10.22151 0.51598,13.0903 0,1.39459 -0.14381,3.48637 -0.43031,6.27549 -0.28653,2.74926 -0.4303,4.82054 -0.4303,6.21511 0,1.95238 0.22875,3.74422 0.68732,5.37787 v 0.2395 c 0,0.51796 -0.28548,1.27613 -0.85867,2.27225 -0.5159,0.99612 -0.77494,1.75233 -0.77494,2.27031 0,0.63752 0.25904,1.15535 0.77494,1.55378 0.57319,0.39857 1.45987,0.678 2.66362,0.83725 1.20373,0.1595 2.23608,0.23948 3.09588,0.23948 0.85985,0.0397 2.12092,0.0604 3.7832,0.0604 h 1.03196 c 4.41371,0 7.88122,-0.18075 10.40331,-0.53935 2.52213,-0.31876 4.27106,-1.075 5.24547,-2.27031 0,-1.3149 -2.75094,-1.97241 -8.25373,-1.97241 -1.14642,0 -2.8953,0.0803 -5.24546,0.2395 -2.35011,0.11956 -4.12739,0.17913 -5.33114,0.17913 v -1.13516 c 0,-1.75318 -0.31577,-2.88945 -0.94629,-3.40741 v -24.86247 l 0.6036,-0.71848 c 0,-1.1555 -0.23067,-2.86919 -0.68927,-5.14032 -0.40125,-2.27115 -0.60165,-3.98288 -0.60165,-5.13838 0,-1.55394 2.23669,-2.33067 6.70773,-2.33067 0.5732,0 1.31812,0.0187 2.23527,0.0584 0.97439,0.0397 1.57561,0.0604 1.80495,0.0604 0.91714,0 1.577,-0.24034 1.97824,-0.71847 0.45855,-0.51799 0.68734,-1.09542 0.68734,-1.73291 0,-0.47815 -0.37248,-0.93635 -1.11764,-1.37466 -0.74518,-0.47811 -1.4334,-0.71653 -2.06392,-0.71653 -1.14641,0 -2.80828,0.19933 -4.9865,0.59776 -2.12085,0.39859 -3.69772,0.61648 -4.72949,0.65617 l -1.03196,-0.41668 0.34463,-0.23949 c 0,-1.71332 0.14381,-4.26335 0.43031,-7.65013 0.28651,-3.38682 0.42836,-5.9368 0.42836,-7.65012 0,-2.31097 -0.22875,-5.77744 -0.68732,-10.39942 -0.45855,-4.62197 -0.68733,-8.08844 -0.68733,-10.39942 0,-0.95628 1.28946,-1.43501 3.86888,-1.43501 0.5159,0 1.28917,0.0389 2.32093,0.11877 1.08911,0.0797 1.89266,0.12072 2.40855,0.12072 1.20371,0 2.14906,-0.0204 2.83692,-0.0603 0.74516,-0.0398 1.51843,-0.23914 2.32093,-0.59776 0.80251,-0.39844 1.20331,-0.95536 1.20331,-1.67256 0,-0.55784 -0.14183,-0.99749 -0.42836,-1.31623 -0.28661,-0.35858 -0.74609,-0.59696 -1.37659,-0.71653 -0.63054,-0.15925 -1.17507,-0.2395 -1.63362,-0.2395 -0.45857,-0.0397 -1.11649,-0.0584 -1.9763,-0.0584 z m -92.95031,0.12072 c -4.58565,0 -10.77573,0.37812 -18.57136,1.13516 -7.79563,0.75706 -11.69424,1.55428 -11.69424,2.39103 0,0.63751 0.40081,1.15534 1.2033,1.55378 0.8025,0.3586 1.63442,0.53739 2.49423,0.53739 1.08909,0 2.75099,-0.11913 4.98651,-0.35826 2.2355,-0.23914 3.8974,-0.35827 4.9865,-0.35827 2.00622,0 3.0102,4.20414 3.0102,12.61132 0,3.30712 -0.0283,5.95582 -0.0856,7.94804 -0.0573,1.99223 -0.0856,3.16758 -0.0856,3.52618 0,4.38289 0.40082,10.93772 1.20331,19.66369 0.8598,8.68613 1.28897,15.18137 1.28897,19.48456 0,2.3907 -0.22876,5.8161 -0.68732,10.2787 -0.45857,4.4626 -0.71567,7.72975 -0.773,9.80167 0,0.99609 0.31381,2.07278 0.94435,3.22828 0.63054,1.11566 1.54946,1.67254 2.75319,1.67254 2.00622,0 3.00825,-1.59252 3.00825,-4.78011 0,-3.02816 -0.1437,-7.7501 -0.43031,-14.16509 -0.2866,-6.41498 -0.42835,-11.19652 -0.42835,-14.34423 0,-1.1555 0.17012,-2.33085 0.51403,-3.52619 -0.80248,-2.03208 -1.4037,-4.46291 -1.80496,-7.29187 -0.4013,-2.86881 -0.63005,-4.99969 -0.68732,-6.39424 v -7.11274 c 0,-1.63361 0.0284,-4.10351 0.0856,-7.41063 0.11455,-3.3071 0.17134,-5.77894 0.17134,-7.41259 0,-5.45869 -0.42917,-10.75805 -1.28897,-15.898 0.45858,-0.83674 1.69133,-1.25393 3.69753,-1.25393 0.68786,0 1.77689,0.0596 3.26722,0.17913 1.49034,0.11956 2.57937,0.17913 3.26723,0.17913 2.23551,0 3.35289,-0.59793 3.35289,-1.79327 0,-0.55782 -0.4008,-1.03462 -1.2033,-1.43306 -0.80249,-0.43831 -1.63441,-0.65812 -2.49424,-0.65812 z m 52.75259,0 c -4.58568,0 -10.77576,0.37812 -18.57137,1.13516 -7.79561,0.75706 -11.69424,1.55428 -11.69424,2.39103 0,0.63751 0.40082,1.15534 1.2033,1.55378 0.8025,0.3586 1.63443,0.53739 2.49423,0.53739 1.08909,0 2.75099,-0.11913 4.9865,-0.35826 2.23553,-0.23914 3.89742,-0.35827 4.9865,-0.35827 2.00624,0 3.01022,4.20414 3.01022,12.61132 0,3.30712 -0.0284,5.95582 -0.0856,7.94804 -0.0573,1.99223 -0.0856,3.16758 -0.0856,3.52618 0,4.38289 0.4008,10.93772 1.2033,19.66369 0.8598,8.68613 1.28898,15.18137 1.28898,19.48456 0,2.3907 -0.22876,5.8161 -0.68732,10.2787 -0.4586,4.4626 -0.71768,7.72975 -0.77495,9.80167 0,0.99609 0.31578,2.07278 0.94628,3.22828 0.63054,1.11566 1.54752,1.67254 2.75125,1.67254 2.00624,0 3.0102,-1.59252 3.0102,-4.78011 0,-3.02816 -0.1437,-7.7501 -0.4303,-14.16509 -0.28661,-6.41498 -0.43031,-11.19652 -0.43031,-14.34423 0,-1.1555 0.17205,-2.33085 0.51598,-3.52619 -0.8025,-2.03208 -1.40373,-4.46291 -1.80496,-7.29187 -0.4013,-2.86881 -0.63004,-4.99969 -0.68732,-6.39424 v -7.11274 c 0,-1.63361 0.0284,-4.10351 0.0856,-7.41063 0.11454,-3.3071 0.17135,-5.77894 0.17135,-7.41259 0,-5.45869 -0.42918,-10.75805 -1.28898,-15.898 0.45855,-0.83674 1.68935,-1.25393 3.69558,-1.25393 0.68786,0 1.77689,0.0596 3.26723,0.17913 1.49033,0.11956 2.57936,0.17913 3.26722,0.17913 2.23549,0 3.35483,-0.59793 3.35483,-1.79327 0,-0.55782 -0.40277,-1.03462 -1.20524,-1.43306 -0.80251,-0.43831 -1.63248,-0.65812 -2.49228,-0.65812 z m -182.67624,0.59776 c -3.03799,0 -4.55619,2.9281 -4.55619,8.78528 0,5.69777 0.20041,14.20468 0.60165,25.52055 0.40124,11.31587 0.60165,19.82277 0.60165,25.52053 0,3.42662 -0.14369,8.60674 -0.4303,15.53976 -0.28662,6.89309 -0.43031,12.05275 -0.43031,15.47939 0,1.11566 2.29341,1.67254 6.87908,1.67254 0.8598,0 2.03584,-0.19929 3.52618,-0.59775 1.49034,-0.3585 2.63607,-0.55782 3.43857,-0.59775 3.89781,-1.19535 7.04955,-2.40979 9.45703,-3.64497 2.46478,-1.27501 4.44245,-2.78938 5.93279,-4.54257 1.49033,-1.79299 2.57937,-3.62588 3.26722,-5.49858 0.74517,-1.91254 1.40503,-4.40296 1.97825,-7.47099 -0.34394,-0.71723 -0.51598,-1.17546 -0.51598,-1.37466 0,-0.59767 0.087,-1.4731 0.25895,-2.62857 0.17197,-1.15552 0.25703,-2.03286 0.25703,-2.63052 0,-2.1516 -0.22876,-4.00501 -0.68733,-5.55895 -0.40124,-1.59377 -1.17451,-3.10814 -2.32093,-4.54257 -1.0891,-1.47426 -2.20843,-2.7278 -3.35485,-3.76373 -1.08908,-1.03598 -2.72263,-2.55034 -4.90083,-4.54256 -2.12086,-1.99224 -4.01152,-3.84564 -5.67383,-5.55895 7.56635,-7.09234 11.34961,-13.86503 11.34961,-20.31987 0,-5.65793 -2.12136,-10.2812 -6.3631,-13.86719 -4.18441,-3.58605 -10.28945,-5.37787 -18.31436,-5.37787 z m 264.53591,2.57016 v 0.35827 c 2.0062,0 3.7551,0.65754 5.24547,1.9724 1.49033,1.27504 2.57935,2.8881 3.26721,4.84047 0.68791,1.9524 1.17382,3.76478 1.46033,5.43823 0.34395,1.67348 0.51597,3.18785 0.51597,4.54257 0,1.71332 -0.25709,3.72501 -0.77299,6.03599 -0.51587,2.311 -1.23245,4.04518 -2.14959,5.20068 -0.74519,0.83672 -2.23503,2.0922 -4.47052,3.76569 -2.17823,1.67346 -3.69835,2.5098 -4.55815,2.5098 h -0.34269 c -0.34396,-1.71333 -0.51598,-4.32295 -0.51598,-7.82927 0,-2.98836 0.14378,-7.43088 0.43031,-13.32785 0.28651,-5.93688 0.42836,-10.3999 0.42836,-13.38821 z m -259.11909,1.6122 c 3.89781,0 7.30861,1.276 10.23197,3.82603 2.92336,2.55006 4.38485,5.21928 4.38485,8.00839 v 4.66134 c -0.45856,0.7172 -1.14679,2.03227 -2.06392,3.94481 -0.91713,1.91254 -1.80575,3.56664 -2.66557,4.9612 -0.80248,1.35471 -1.83287,2.82807 -3.09392,4.42184 -1.26106,1.55397 -2.7509,2.77036 -4.47053,3.64691 -1.71963,0.83674 -3.61222,1.25393 -5.67578,1.25393 l -0.51597,-0.11877 c 0,-3.26726 -0.11535,-8.14747 -0.34464,-14.64214 -0.22928,-6.53452 -0.34269,-11.43525 -0.34269,-14.7025 0,-3.50632 1.51819,-5.26104 4.5562,-5.26104 z m 4.81515,39.14824 c 10.08847,2.90868 15.13281,11.67447 15.13281,26.29744 0,3.02817 -0.22876,5.27826 -0.68732,6.75251 -0.85982,2.43052 -3.69774,4.94143 -8.5127,7.53136 -4.81494,2.55004 -9.02736,3.82409 -12.63857,3.82409 -0.11463,0 -0.31504,-0.0187 -0.60165,-0.0584 -0.22929,-0.0397 -0.40133,-0.0603 -0.51598,-0.0603 0,-16.65505 -0.28741,-30.95859 -0.86061,-42.91198 0.74517,-0.0798 2.09325,-0.32003 4.04216,-0.71848 1.94891,-0.39861 3.49546,-0.61648 4.64186,-0.65617 z"
       id="path5129"
       inkscape:connector-curvature="0" />
  </g>
</svg>
